<?xml version="1.0" encoding="UTF-8"?>
<svg id="Layer_1" data-name="Layer 1" xmlns="http://www.w3.org/2000/svg" viewBox="0 0 947.46 947.46">
  <defs>
    <style>
      .cls-1 {
        fill: none;
      }

      .cls-1, .cls-2 {
        stroke-width: 0px;
      }

      .cls-3 {
        opacity: .5;
      }

      .cls-2 {
        fill: #fff;
      }
    </style>
  </defs>
  <g class="cls-3">
    <polygon class="cls-1" points="616.41 117.49 621.67 198.82 641.6 207.33 690.2 92.71 667.74 83.16 642.13 143.56 641.8 72.19 614.85 60.78 566.24 175.38 588 184.56 616.41 117.49"/>
    <path class="cls-1" d="M206.91,657.85l7.53-23.12-26.83-51.61-110.7,57.47,11.19,21.45,36.49-19.01,6.03,11.39-28.6,34.35,12.18,23.43,31.78-37.08,19.72,4.17,41.2-21.44ZM150.84,629.36l23.84-12.4,9.91,19.02-2.1,6.68-15.06,7.85s-6.62-1.97-6.7-2.13l-9.88-19.03Z"/>
    <path class="cls-1" d="M528.83,211.09c3.3,1.29,6.64,2.51,9.91,3.82,2.16.85,4.21,2.01,6.43,2.66,1.54.45,2.99,1,4.31,1.79,5.04,2.92,10.09,5.84,15.06,8.85,2.99,1.77,5.79,3.89,8.33,6.28,1.94,1.79,4,3.52,6.34,4.81,1.06.58,1.94,1.53,2.88,2.31.5.42,1.02.86,1.55,1.3,2.96,2.42,6.15,4.52,8.78,7.36,2.77,3,5.72,5.89,8.66,8.73,2.79,2.74,5.62,5.41,8,8.51,1.97,2.57,4.02,5.07,6.26,7.36,4.38,4.32,7.7,9.44,11.65,14.06.5.55.8,1.27,1.22,1.89,2.55,4.06,4.85,8.27,7.95,11.99,2.16,2.57,4.1,5.27,5.56,8.36.84,1.83,2.1,3.5,3.27,5.19.67.99,1.79,1.46,2.38,1.43.58-.06,1.69-.55,1.69-.55l2.13-.84s2.83-1.27,3.77-1.69c.97-.45,2.83-1.5,3.52-2.11.69-.63,3.49-2.57,5.1-4.03,1.58-1.45,4.82-5.24,4.82-5.24l2.3-3.11,4.04-6.67s.77-1.52.63-2.24c-.14-.71-1.44-2.66-1.44-2.66l-.92-1.66-2.63-3.02-1.77-2.57-3.32-3.24s-.72-.64-1.11-.93c-5.78-4.7-17.35-14.07-17.39-14.11,0-.04-3.21-2.56-3.21-2.56l-6.01-5.26-30.1-18.04-23.7-11.25s-12.63-4.95-12.63-4.9c0,.02-4.56-1.64-4.62-1.62-.09.03-15.51-5.33-15.51-5.33l-10.96-2.78-10.61-2.3-1.66-.15-.94.93.38.47s1.08.54,1.58.75Z"/>
    <path class="cls-1" d="M390.36,220.49l-3.6,1.37-8.86,3.72-11.27,4.39-3.68,1.77-7.92,4.27-6.85,4.49-6.39,3.3-2.35,1.35-7.01,3.72-1.1.73-7.97,6.25-6.59,4.47-1.31.84-7.47,5.9-2.74,2.27s-4.01,3.44-4.13,3.92l2.83-.84s5.15-1.88,5.23-1.85c.11.02,1,.07,1,.07l7.45-3h1.06l8.11-3.2s4.26-1.4,4.26-1.29c0,.1,4.29-1.61,4.29-1.61l6.04-2.14,14.59-5.61,1.32-.04,7.48-2.61,5.9-2.44.86.63s11.35.28,11.43.28c.02,0,7.31.55,7.31.55l.22.15,14.71,1.13.16-.09,20.36,1.04.08.5,7.23,6.2.52-.03,7.34,7.11.69-.32,10.11.29.5-.37,25.42,1.49.14.58,11.33,6.56.5-.11,20.02,9.75.14,1.07,11.33-4.43,16.64,5.6,2.83,4.6,6.07.4,5.86,6.62.64.05,4.71,5.38.05.34h.7l13.09,2.99,4.85,7.45,12.12,4.43s12.99,3.3,19.66,4.15c5.93.76,12.96.43,17.56.15h0c1.61-.12,3.05-.15,4.26-.3.92-.11,1.77-.14,2.22-1.09.36-.95-.36-1.98-.55-2.43-.37-.78-3.43-6.22-3.43-6.22l-2.99-4.67-12.63-18.23-2.63-3.1-2.46-3.3-4.13-4.57-10.22-11.22-4.4-4.31-15.83-14.67-13.02-10.02-4.68-2.47-15.23-9.31-10.69-5.78-2.08-.84-8.66-3.18-12.9-4.82-1.02-.23-4.13-1.04-1.11-.16-3.62-.93-7.7-1.42-3.65-.13-6.85-1.27-8.19-.53-2.85-.35-5.15-.07-8.58.24-8.48.96-6.59.13-5.81.67-5.95,1.19-4.51,1.38-7.34,1.42-1.66-.02-6.84,2.44-4.04,1.14-2.47,1.49-5.98,1.63-2.88,1.66Z"/>
    <path class="cls-1" d="M151.69,762.53l19.52,17.96,17.58-10.52,26.69,24.55-9.05,18.38,19.5,17.94,57.98-117.92-19.5-17.94-112.72,67.55ZM226.62,771.69l-16.03-14.75,33.12-19.77-17.09,34.53Z"/>
    <polygon class="cls-1" points="103.05 319.97 192.42 359.93 203.12 336.12 113.73 296.11 122.98 275.39 98.53 264.44 69.3 329.74 93.8 340.7 103.05 319.97"/>
    <path class="cls-1" d="M666.03,599.23c-2.08,5.7-4.1,11.49-7.34,16.68-.25.35-.36.76-.5,1.12-1.53,3.59-3,7.2-4.63,10.78-1.02,2.32-2.52,4.41-3.48,6.72-1.25,2.95-2.88,5.59-4.57,8.25-2.74,4.21-5.59,8.31-7.92,12.72-1.66,3.09-3.52,5.99-5.57,8.83-.55.74-1.02,1.49-1.49,2.22-1.63,2.37-3.15,4.83-4.93,7.09-3.4,4.36-6.94,8.62-10.57,12.83-2.24,2.65-4.73,5.1-7.11,7.62-2.16,2.27-4.32,4.57-6.5,6.85-.47.49-1.06.88-1.55,1.32-1.31,1.1-2.69,2.14-3.88,3.35-2.83,2.81-5.7,5.51-9.02,7.72-1.45.95-2.88,1.91-4.21,2.99-3.46,3.02-7.41,5.29-11.85,7.56h0c.45.53.75,1.16,1,1.16,1.38-.08,4.18-.53,4.18-.53l2.79-1.19,7.84-3.08s19.58-9.31,19.66-9.39c.06-.06,3.43-1.81,3.43-1.81l1.77-.79,2.1-1.44,3.49-2.16,4.13-2.27,5.31-3.48,9.25-6.49,4.51-3.57,6.5-4.71,5.93-4.4,2.77-2.05,3.93-3.65,4.07-4.03,6.54-6.99,7.61-7.34,8.81-10.13,4.82-6.48,1.71-2.32,5.16-6.4,10.1-14.5,2.83-4.75,6.81-13.36,3.82-7.28,6.54-13.26,3.54-8.06,3.85-12.38s4.54-16.31,7.01-24.86c.28-.97.39-1.85-.25-2.71-1.38-1.97-2.4-4.47-3.74-6.68-.67-1.18-1.66-2.32-2.3-3.28-.64-.93-2.35-3.1-3.02-3.87-.71-.84-1.58-1.55-2.46-2.22-2.1-1.98-3.96-3.96-5.73-5.26-.83-.45-1.61-1.06-2.35-1.63-5.51-4.24-11.08-7.64-17.36-10.35-2.6-1.14-5.31-2.11-8.06-3.04-1.91-.63-4.95-1.4-6.95-1.71-1.16-.21-2.07-.24-2.96.35-.85.58-.89,1.92-1.05,3.21-.36,3.4-.5,7.15-.78,10.56-.3,3.54-.58,7.07-.85,10.61-.25,3.2-.41,6.42-.84,9.6-.5,4.19-1.05,8.4-1.85,12.58-1.49,7.79-3.16,15.53-4.77,23.35-.46,2.1-.77,4.34-1.6,6.34-1.45,3.26-2.44,6.7-3.1,10.18-1.45,7.37-4.16,14.32-6.64,21.32Z"/>
    <path class="cls-1" d="M746.15,513.74c.09-.67.19-1.84.19-1.84l1.91-17.05,1.14-15.97.06-15.81-.02-2.48-1.88-17.95s-2.22-16.17-3.88-24.49c-.61-2.98-2.4-4.47-4.84-5.63-.78-.38-1.66-.8-2.53-1.06-1.77-.55-3.7-1.39-5.48-1.88-4.04-.99-7.89-2.33-11.99-3.03-4.85-.83-9.74-1.35-14.65-1.77-4.01-.37-8.06-.53-12.1-.57-3.21-.06-5.15-.1-8.36-.1-1.74,0-3.56.06-4.34,1.1-.77,1.09-.22,3.02.06,4.91.61,3.93,1.3,5.89,1.94,9.79,1.93,11.52,4.01,23.05,4.43,34.77.22,5.25.53,10.52.75,15.77.09,1.5.06,2.48.09,3.98.02.91.22,1.9.63,2.56.47.72,1.19.84,2.08,1.1.99.32,1.93.43,2.96.66.99.25,2.87.64,4.15,1.03,4.65,1.5,9.63,3.18,14.15,5.02,3.24,1.27,6.2,3.15,9.31,4.75.39.22.69.45,1.05.68,1.78,1.36,3.61,2.7,5.38,4.04,4.24,3.1,8.61,6.12,11.88,10.39.61.82,1.32,1.58,2.07,2.27,1.31,1.1,3.43,5.15,4.99,6.98.28.32.53.41.67.41s.19-.25.22-.57Z"/>
    <path class="cls-1" d="M220.21,273.98l23.48-.32,32.2-33.13-.47-23.33-65.62-63.79-23.42.34-32.12,32.99.32,23.46,65.62,63.79ZM195.6,183.07l7.03-.1,43.31,42.09.08,7.02-11.74,12.08-7,.11-43.33-42.11-.11-7.02,11.77-12.07Z"/>
    <path class="cls-1" d="M347.16,195.07l-16.42-37.74,11.77-5.23,32.25,30.95,24.23-10.54-34.78-34.3,5.54-19.38-18.52-42.6-22.53-9.13-53.33,23.2,49.58,114.41,22.21-9.63ZM308.21,105.51l19.65-8.55,6.54,2.6,6.78,15.57s-2.44,6.44-2.6,6.5l-19.66,8.56-10.71-24.67Z"/>
    <path class="cls-1" d="M666.86,363.95c1.55,4.69,2.99,9.38,4.48,14.08.67,2.09,1.36,4.17,1.94,6.26.61,2.11,1.1,4.22,1.66,6.34.37,1.4,1.31,2.03,2.72,2.02,1.36-.02,2.74-.09,4.09-.15,4.85-.13,9.72-.3,14.59-.37,1.39-.02,11.13.89,11.13.89,0,0,3.48.33,5.15.62,3.71.69,7.37,1.5,11.04,2.29,3.1.63,6.29,1.7,9.17,3.01,1.41.63,2.91,1.06,4.46,1.49.5.14,1.24.23,1.36.19.14-.06.33-.61.28-.83-.39-1.93-1.77-5.88-1.77-5.88l-.75-2.1-.69-2.55-2.14-6.41-1.99-5.6-6.24-13.86-2.82-6.82-3.57-7.88-4.24-6.99-1-2-2.85-5.73-2.63-4.3-1.1-1.47-18.17-24.6s-1.77-2.1-2.66-3.12c-.39-.54-.56-.95-1.11-.95-.05,0-.11,0-.14,0,0,0-5.59,9.16-7.92,11.76-2.32,2.56-7,6.85-7,6.85,0,0-3.96,3.23-4.63,3.72-.63.55-3.65,2.5-3.65,2.5l-4.15,2.38s-3.13,1.46-3.65,1.64c-.5.2-1.08.45-1.41.84-.31.41-.41.72-.28,1.43.11.55.3,1.08.52,1.56,1.66,3.52,3.22,7.11,5.04,10.53,2.74,5.09,4.51,10.58,6.78,15.87.78,1.75,1.55,3.52,2.14,5.32Z"/>
    <path class="cls-1" d="M337.13,748.77l-47.87,115.18,21.65,8.97,17.97-42.99,34.83,14.53,17.39-9.25,17.44-41.95-8.75-22.59-52.66-21.9ZM362.19,812.28s-6.26,2.75-6.42,2.67l-17.61-7.31,10.3-24.82,17.64,7.3,2.61,6.48-6.5,15.68Z"/>
    <path class="cls-1" d="M608.85,754.02l-43.03,16.33-9.63,21.41,32.47,85.56,21.41,9.63,43.19-16.39,9.47-21.32-32.48-85.58-21.4-9.63ZM629.75,850.25l-15.75,5.98-6.4-2.88-21.43-56.48,2.88-6.4,15.75-5.98,6.4,2.9,21.43,56.47-2.88,6.39Z"/>
    <path class="cls-1" d="M445.21,607.67l-.94-3.36,3.82-13.94,7.37-2.2.3-.29,2.18-.5.06-1.22,9.89-16.09.94-.39,4.07-7.93,6.72-3.81.92-1.09,1.32.16s3.94-2.3,4.04-2.27h.47l7.26-3.19.61-.86,24.22-11.13,1.44-.14.28-1.33.94-.7,2.49-8.46,7.67-3.3,8.83-1.08,8.06-5.56,11.49.47,1.1.96.58-.71,16-7.18-.06-2.07,3.82-7.32,7.86-2.1.39-.52,10.8-2.27,4.13-4.9.55-.11s2.47-2.44,2.52-2.48c.11-.02,7.45,1.01,7.45,1.01l.37.28,4.07.57,2.49.29s10.88-5.11,15.45-6.84c1.92-.74,3.8-1.22,5.59-1.87,2.49-.89,5.01-1.78,7.56-2.62,1.27-.43,2.52-.76,3.77-1.13l5.09-.92,5.9-1.01,3.57-.21s1.75-.23,2.41-.32c.67-.11,1.66-.11,2.44-.81.77-.69.75-1.43.83-2.07.09-.67.11-1.02.11-2h0c0-1.1-.22-1.81-.28-2.89-.19-3.08-.31-6.14-.47-9.22-.06-1.01-.19-2.03-.28-3.06-.25-3.82-.31-7.66-.69-11.46-.5-4.85-1.19-9.66-1.94-14.45-.55-3.72-1.27-7.41-1.94-11.12-.69-3.88-1.32-7.43-2.16-11.28-.86-3.91-1.69-4.44-5.7-3.97-.33.07-.69.11-1.02.18-1.47.3-3.55.5-5.04.7-7.8,1.02-15.17,1.45-22.98,2.37l-22.37,7.78-32.39-.84-3.52-1.15v.57l-9.55,7.05-1.33.11-7.54,7.02-.44.97-19.35,2.59-17.69,13.64-1.83-.05-9.44,5.56-3.71.41-3.71,3.11-.97-.74-18.03-1.23-3.1,3.52.06.57-15.58,17.02-.19.98-.61.13-19.88,22.69-5.46.07-.45.55-16.31,2.81-1.27-.06s-.33.73-.41.79c-.08.06-26.89,14.93-26.89,14.93l-12.04-1.43-2.55.9-12.04-.71-11.9,12.87-7.11,1.47-4.04-.19-4.21,1.79-2.53-.28.11.51-14.81,11.47-1.41.29-23.15,17.97.19,1.08-14.28,34.63.58,1.45-23.62,2.16-7.78,6.67-.72,2.53,10.52,14.58,7.76,11.9,6.7,8.54,10.91,11.85s.06.84.31.89c.19.08,1.44.14,1.49.22.06.02,6.54,2.18,6.56,2.24.06.02,8.03,2.49,8.03,2.49,0,0,.11.41.19.41.06,0,.8-.14.8-.14l13.34,5.18,1-.05.75.88h1.19c.09.02,3.16,2.09,3.16,2.09l5.57-3.06.28.03,2.52-1.62,20.24,5.11,14.84-7.58,32.98-3.28,13.51-21.72c2.13-2.14,5.98-6.05,5.98-6.05l.53-.04s4.62-4.26,4.71-4.34c.08-.11,0-.61,0-.61l8.53-7.72,3.95-4.16s.86-.53,1-.53c.11-.02,4.57-4.76,4.57-4.76l3.65-3.78.97-.21Z"/>
    <path class="cls-1" d="M836.22,252.95l-82.54,39.49-7.84,22.13,19.96,41.68,22.05,7.63,82.53-39.46,7.81-22.17-19.85-41.5-22.12-7.8ZM845.16,307.41l-54.49,26.04-6.64-2.32-7.25-15.18,2.32-6.63,54.5-26.06,6.64,2.33,7.24,15.19-2.32,6.63Z"/>
    <path class="cls-1" d="M658.16,376.8c-1.47-4.01-2.61-8.18-4.48-12.09-1.11-2.31-1.75-4.89-2.61-7.32-.47-1.23-1.08-2.39-1.49-3.61-2.19-6.31-5.21-11.43-8.23-17.37-.16-.31-.3-.61-.58-1.11-.31-.55-.56-1.08-1.31-1.49-.75-.44-1.36-.15-2.71.04-2.6.3-5.81.64-7.17.64-1.19,0-6.29.38-10.3.72l-.94-.28h-4.93l-12.98-1.67c-4.73-.71-15.62-3.46-15.62-3.46l-7.97-2.72-9.8-3.38-.78.43-15.25-1.22-.5.28-8.58-6.56-1.02-.06-5.34-4.83-.22-.96-5.95-.91-.58.24-4.9-1.67-.56-.51-11.24.81-10.19-4.14-35.3,1.86-.55-.36-6.67.5-.69.52-17.39,1.32-.5-.44-24.78,14.32-.28,1.06-1.17,1.01-.58-.41-12.43-1.16-.7.3-22.01.15-.5-.24-6.29-.2-1.88-1.11-23.13,17.87-.08.43-8.08,6.37-9.05-4.28-.55.27-3.35-1.02s-16.61,4.24-16.48,4.37c.17.11-15.53-2.47-15.53-2.47l-1.08-.88-2.96,3.04-6.24,2.96-.14.54-12.43,9.47-17.63,12.72-19.83,14.75-8.94,6.5-.45,3.82-3.76,8.71-1.64,7.5-2.48,15.14-1.47,6.56-.55,7.86-2.16,16.37-.92,35.82.97,2.12.63,9.87s.16,1.71.55,1.79h.03l43.91-45.43,14.43-5.8,12.12-.62,7.31-8.41.7-1.58.89.41,19.77-2.22.86-.63h7.37l1.14.45,2.35-3.13,8.86-5.47,9.5-6.51,26.61.36.19.58,10.44.95,8.14-1.6,14.93-15.24.31.02,11.85-11.26,17.83-2.31.69-.46.78.75,9.24,4.39.7-.61,8.19-.97.39-.47,7.7-1.29.69-.43,8.36,7.15.47-.55,17.2-.32,1.44-1.08,13.79.67.75.3,2.14-.54.38-.62,5.48-2.48.67.07,6.34-2.88.53-.54,6.78-2.57.5-.79,18.8-7.19.16-.28,3.3-1.02.72-.74.94,1.01,5.45,2.68,1.69.06,6.12,3.41.41-.58,1.85-.88.23.06,3.05-1.4.14-.22,4.38-1.06,11.24,2.93,2.38-.52,2.08,1.36,8.25,1.23,8.09,3.15s4.68-.36,4.7-.36c.08,0,1.53,1.02,1.53,1.02l1.16-.69s15.92-1.99,23.92-2.62c5.17-.41,10.33-.98,15.53-1.49,2.91-.28,5.84-.55,8.75-.89,1.58-.19,2.38-.8,1.83-2.61h0c-1.63-5.03-2.91-9.75-4.68-14.71Z"/>
    <path class="cls-1" d="M754.04,728.56l-30.07-35.4-24.26-2.2-44.27,37.65,80.63,95.11,18.44-15.67-26.66-31.34,9.74-8.4,39.87,20.26,20.12-17.12-43.22-22.75-.33-20.13ZM725.03,740.27l-16.34,13.89-17.42-20.5,16.34-13.87,7.01.57,10.99,12.94s-.44,6.84-.58,6.98Z"/>
    <path class="cls-1" d="M832.06,607.26l-22.98,6.89-14.65,27.85-6.7,2.01,1.55.86-12.24-6.47-2.13-6.63,7.78-14.81,2.44-4.59,8.64,4.53,12.32-23.41-17.64-9.15-22.79,6.56-21.49,40.89,7.31,22.84,37.44,19.68.08-.15,23.21-7.03,14.36-27.36,6.81-2.05,9.86,5.18,2.08,6.72-10.17,19.35-9.47-4.98-12.21,23.2,18.75,9.88c.14.06,22.73-6.82,22.73-6.82l21.49-40.91-6.95-22.43-37.44-19.66Z"/>
    <path class="cls-1" d="M585.65,699.3c2.35-2.2,4.65-4.44,6.95-6.72,2.18-2.16,4.34-4.34,6.53-6.54.39-.38.89-.77,1.06-1.24.75-1.77,2.16-2.96,3.46-4.3.86-.97,1.83-1.87,2.53-2.96,1.52-2.33,3.68-4.04,5.62-5.97,1.52-1.53,2.96-3.22,4.18-5,2.3-3.25,4.43-6.59,6.61-9.9,2.88-4.41,6.07-8.69,8.53-13.3,2.66-4.95,5.29-9.94,8.08-14.79,2.38-4.15,4.82-8.36,6.65-12.76,2.99-7.26,6.14-14.45,8.94-21.84,2.99-7.82,5.37-15.81,7.47-23.88,1.64-6.03,2.55-12.2,4.77-18.07.28-.76.39-1.6.53-2.4.83-4.92,1.69-9.84,2.46-14.77.72-4.68,1.39-9.34,2.05-14.01.47-3.2.97-6.35,1.25-9.57.36-4.43.58-8.88.77-13.32,0-.5.06-1.44.06-1.44,0,0,.03-1.41.06-2.26h0c.02-.84.16-2.28-.53-3.05-.69-.76-1.58-.88-2.16-.84-.58,0-3.38.36-3.38.36l-4.68.72c-.53.08-1.05.16-1.55.3-2.83.68-5.62,1.25-8.39,2.02-3.1.89-6.26,1.69-9.14,2.99-3.1,1.39-6.59,2.47-9.66,3.95-1.11.51-11.49,5.61-16.26,7.97l-6.06,6.45-.23,1.39-.83-.33-3.79.22-.16.29-12.41,4.11.17,1.39-1.31,1.24-.02.79-5.76,10.15-.8.04-.14,1.08s-1.19,1.91-2.49,4.09l-26.03,16.73-.58-.04-3.93,3.3-2.77,10.96-2.52,2.46-10.17,37.59,1.36,4.22-15.06,7.23h-2.41l-2.88,13.1-.5.44-3.71,11.88.19.61-1.52,10.27-.56.71.5.93-14.43,22.96-1.1.34-3.55,5.55-.08,1.1s-12.35,17.42-12.35,17.36c-.02-.06-13.03,7.72-13.03,7.72l.71,1.11c0,.11-.69,5.26-.69,5.26l1.14,1.95-1.86.57-9.39,5.56-1.05-.22-13.82,8.17-1.63,2.58c0,.24,5.38.82,5.38.82l9,.72,6.09.3,7.11.11,3.3.14,5.34.15,5.32-.15,19.35-2.32,11.52-2.02,8.69-2.37,9.44-2.75,11.99-4.73.86-.55,3.43-1.88s9.66-5.15,14.03-8.43c7.5-5.67,15.06-11.26,21.88-17.75Z"/>
    <polygon class="cls-1" points="684.24 239.9 702.84 258.2 771.51 188.38 787.71 204.3 806.51 185.18 755.48 135.01 736.66 154.15 752.88 170.09 684.24 239.9"/>
    <polygon class="cls-1" points="517.6 781.64 446.05 782.44 446.32 809.24 469.03 809.02 470.14 906.9 496.25 906.64 495.17 808.75 517.87 808.47 517.6 781.64"/>
    <path class="cls-1" d="M503.89,164.6l16.42-16.6V56.49l-16.59-16.61h-46.04l-16.58,16.61v91.52l16.58,16.6h46.21ZM467.31,71.95l4.99-4.98h16.81l4.99,4.98v60.39l-4.99,4.98h-16.81l-4.99-4.98v-60.39Z"/>
    <polygon class="cls-2" points="604.81 784.49 589.05 790.48 586.17 796.88 607.6 853.36 614 856.24 629.75 850.25 632.64 843.86 611.21 787.39 604.81 784.49"/>
    <polygon class="cls-2" points="227.28 244.26 234.28 244.16 246.02 232.07 245.94 225.06 202.63 182.97 195.6 183.07 183.83 195.13 183.95 202.15 227.28 244.26"/>
    <path class="cls-2" d="M182.48,642.66l2.1-6.68-9.91-19.02-23.84,12.4,9.88,19.03c.08.16,6.7,2.13,6.7,2.13l15.06-7.85Z"/>
    <polygon class="cls-2" points="226.62 771.69 243.7 737.17 210.59 756.94 226.62 771.69"/>
    <path class="cls-2" d="M348.45,782.81l-10.3,24.82,17.61,7.31c.16.08,6.42-2.67,6.42-2.67l6.5-15.68-2.61-6.48-17.64-7.3Z"/>
    <path class="cls-2" d="M341.17,115.13l-6.78-15.57-6.54-2.6-19.65,8.55,10.71,24.67,19.66-8.56c.16-.06,2.6-6.5,2.6-6.5Z"/>
    <path class="cls-2" d="M473.73,0C212.1,0,0,212.1,0,473.73s212.1,473.73,473.73,473.73,473.73-212.1,473.73-473.73h0C947.46,212.1,735.37,0,473.73,0ZM755.48,135.01l51.03,50.17-18.8,19.12-16.2-15.92-68.67,69.82-18.6-18.3,68.64-69.81-16.22-15.94,18.82-19.13ZM745.93,514.31h0c-.14,0-.39-.1-.67-.41-1.55-1.83-3.68-5.87-4.99-6.98-.75-.7-1.46-1.45-2.07-2.27-3.27-4.26-7.64-7.28-11.88-10.39-1.77-1.34-3.6-2.68-5.38-4.04-.36-.24-.66-.46-1.05-.68-3.1-1.6-6.07-3.48-9.31-4.75-4.51-1.84-9.49-3.52-14.15-5.02-1.27-.39-3.16-.78-4.15-1.03-1.03-.23-1.97-.33-2.96-.66-.89-.25-1.61-.37-2.08-1.1-.41-.66-.61-1.65-.63-2.56-.03-1.5,0-2.48-.09-3.98-.22-5.25-.53-10.52-.75-15.77-.41-11.73-2.49-23.25-4.43-34.77-.64-3.9-1.33-5.85-1.94-9.79-.28-1.89-.83-3.82-.06-4.91.78-1.05,2.61-1.1,4.34-1.1,3.22,0,5.16.04,8.36.1,4.04.04,8.09.2,12.1.57,4.9.42,9.8.94,14.65,1.77,4.09.7,7.94,2.04,11.99,3.03,1.78.49,3.71,1.32,5.48,1.88.86.26,1.75.68,2.53,1.06,2.44,1.16,4.23,2.65,4.84,5.63,1.66,8.32,3.88,24.49,3.88,24.49l1.88,17.95.02,2.48-.06,15.81-1.14,15.97-1.91,17.05s-.11,1.18-.19,1.84c-.02.32-.08.57-.22.57h0ZM657.94,342.77c-1.83-3.42-3.38-7.02-5.04-10.53-.22-.48-.41-1.01-.52-1.56-.14-.71-.03-1.02.28-1.43.33-.4.91-.64,1.41-.84.52-.18,3.65-1.64,3.65-1.64l4.15-2.38s3.02-1.95,3.65-2.5c.67-.49,4.63-3.72,4.63-3.72,0,0,4.68-4.29,7-6.85,2.33-2.6,7.92-11.76,7.92-11.76.03,0,.09,0,.14,0,.55,0,.72.41,1.11.95.89,1.02,2.66,3.12,2.66,3.12l18.17,24.6,1.1,1.47,2.63,4.3,2.85,5.73,1,2,4.24,6.99,3.57,7.88,2.82,6.82,6.24,13.86,1.99,5.6,2.14,6.41.69,2.55.75,2.1s1.38,3.95,1.77,5.88c.06.22-.14.77-.28.83-.11.03-.86-.06-1.36-.19-1.55-.44-3.05-.87-4.46-1.49-2.88-1.32-6.07-2.38-9.17-3.01-3.68-.79-7.33-1.6-11.04-2.29-1.66-.28-5.15-.62-5.15-.62,0,0-9.74-.91-11.13-.89-4.87.07-9.74.24-14.59.37-1.36.06-2.74.13-4.09.15-1.41,0-2.35-.63-2.72-2.02-.55-2.12-1.05-4.23-1.66-6.34-.58-2.1-1.27-4.17-1.94-6.26-1.49-4.7-2.93-9.4-4.48-14.08-.58-1.8-1.36-3.57-2.14-5.32-2.27-5.29-4.04-10.78-6.78-15.87ZM661.01,394.13c-2.91.34-5.84.61-8.75.89-5.21.51-10.36,1.08-15.53,1.49-8.01.63-23.92,2.62-23.92,2.62l-1.16.69s-1.45-1.02-1.53-1.02c-.02,0-4.7.36-4.7.36l-8.09-3.15-8.25-1.23-2.08-1.36-2.38.52-11.24-2.93-4.38,1.06-.14.22-3.05,1.4-.23-.06-1.85.88-.41.58-6.12-3.41-1.69-.06-5.45-2.68-.94-1.01-.72.74-3.3,1.02-.16.28-18.8,7.19-.5.79-6.78,2.57-.53.54-6.34,2.88-.67-.07-5.48,2.48-.38.62-2.14.54-.75-.3-13.79-.67-1.44,1.08-17.2.32-.47.55-8.36-7.15-.69.43-7.7,1.29-.39.47-8.19.97-.7.61-9.24-4.39-.78-.75-.69.46-17.83,2.31-11.85,11.26-.31-.02-14.93,15.24-8.14,1.6-10.44-.95-.19-.58-26.61-.36-9.5,6.51-8.86,5.47-2.35,3.13-1.14-.45h-7.37l-.86.63-19.77,2.22-.89-.41-.7,1.58-7.31,8.41-12.12.62-14.43,5.8-43.91,45.43h-.03c-.39-.08-.55-1.79-.55-1.79l-.63-9.87-.97-2.12.92-35.82,2.16-16.37.55-7.86,1.47-6.56,2.48-15.14,1.64-7.5,3.76-8.71.45-3.82,8.94-6.5,19.83-14.75,17.63-12.72,12.43-9.47.14-.54,6.24-2.96,2.96-3.04,1.08.88s15.7,2.58,15.53,2.47c-.14-.13,16.48-4.37,16.48-4.37l3.35,1.02.55-.27,9.05,4.28,8.08-6.37.08-.43,23.13-17.87,1.88,1.11,6.29.2.5.24,22.01-.15.7-.3,12.43,1.16.58.41,1.17-1.01.28-1.06,24.78-14.32.5.44,17.39-1.32.69-.52,6.67-.5.55.36,35.3-1.86,10.19,4.14,11.24-.81.56.51,4.9,1.67.58-.24,5.95.91.22.96,5.34,4.83,1.02.06,8.58,6.56.5-.28,15.25,1.22.78-.43,9.8,3.38,7.97,2.72s10.88,2.74,15.62,3.46l12.98,1.67h4.93l.94.28c4.01-.34,9.11-.72,10.3-.72,1.36,0,4.57-.34,7.17-.64,1.36-.19,1.97-.48,2.71-.04.75.41,1,.94,1.31,1.49.28.5.41.8.58,1.11,3.02,5.94,6.03,11.06,8.23,17.37.41,1.23,1.02,2.38,1.49,3.61.86,2.43,1.49,5,2.61,7.32,1.88,3.91,3.01,8.08,4.48,12.09,1.77,4.96,3.05,9.68,4.68,14.71h0c.55,1.81-.25,2.41-1.83,2.61ZM675.78,567.73c.83-2,1.14-4.24,1.6-6.34,1.61-7.81,3.27-15.56,4.77-23.35.8-4.17,1.36-8.39,1.85-12.58.42-3.18.58-6.4.84-9.6.28-3.54.55-7.07.85-10.61.28-3.41.42-7.16.78-10.56.16-1.29.19-2.63,1.05-3.21.89-.58,1.8-.56,2.96-.35,2,.32,5.04,1.08,6.95,1.71,2.74.93,5.46,1.9,8.06,3.04,6.29,2.71,11.86,6.11,17.36,10.35.75.58,1.53,1.19,2.35,1.63,1.77,1.3,3.63,3.28,5.73,5.26.89.67,1.75,1.38,2.46,2.22.67.77,2.38,2.95,3.02,3.87.63.96,1.63,2.1,2.3,3.28,1.33,2.22,2.35,4.71,3.74,6.68.64.86.53,1.75.25,2.71-2.47,8.56-7.01,24.86-7.01,24.86l-3.85,12.38-3.54,8.06-6.54,13.26-3.82,7.28-6.81,13.36-2.83,4.75-10.1,14.5-5.16,6.4-1.71,2.32-4.82,6.48-8.81,10.13-7.61,7.34-6.54,6.99-4.07,4.03-3.93,3.65-2.77,2.05-5.93,4.4-6.5,4.71-4.51,3.57-9.25,6.49-5.31,3.48-4.13,2.27-3.49,2.16-2.1,1.44-1.77.79s-3.38,1.75-3.43,1.81c-.08.07-19.66,9.39-19.66,9.39l-7.84,3.08-2.79,1.19s-2.8.45-4.18.53c-.25,0-.55-.63-1-1.16h0c4.43-2.27,8.39-4.54,11.85-7.56,1.33-1.08,2.77-2.04,4.21-2.99,3.32-2.22,6.2-4.91,9.02-7.72,1.19-1.22,2.57-2.26,3.88-3.35.5-.44,1.08-.83,1.55-1.32,2.18-2.28,4.34-4.58,6.5-6.85,2.38-2.52,4.87-4.97,7.11-7.62,3.63-4.21,7.17-8.47,10.57-12.83,1.78-2.26,3.3-4.72,4.93-7.09.47-.73.94-1.48,1.49-2.22,2.05-2.83,3.91-5.74,5.57-8.83,2.32-4.42,5.17-8.52,7.92-12.72,1.69-2.66,3.32-5.3,4.57-8.25.97-2.31,2.46-4.4,3.48-6.72,1.63-3.57,3.1-7.19,4.63-10.78.14-.36.24-.77.5-1.12,3.24-5.19,5.26-10.98,7.34-16.68,2.48-7.01,5.2-13.96,6.64-21.32.67-3.48,1.66-6.92,3.1-10.18ZM614.85,60.78l26.94,11.42.33,71.36,25.61-60.4,22.45,9.55-48.59,114.63-19.94-8.51-5.26-81.33-28.41,67.07-21.76-9.18,48.62-114.6ZM527.81,208.94l1.66.15,10.61,2.3,10.96,2.78s15.42,5.36,15.51,5.33c.06-.02,4.62,1.63,4.62,1.62,0-.04,12.63,4.9,12.63,4.9l23.7,11.25,30.1,18.04,6.01,5.26s3.21,2.52,3.21,2.56c.03.03,11.6,9.4,17.39,14.11.39.28,1.11.93,1.11.93l3.32,3.24,1.77,2.57,2.63,3.02.92,1.66s1.3,1.96,1.44,2.66c.14.72-.63,2.24-.63,2.24l-4.04,6.67-2.3,3.11s-3.24,3.78-4.82,5.24c-1.61,1.46-4.41,3.4-5.1,4.03-.69.61-2.55,1.66-3.52,2.11-.94.41-3.77,1.69-3.77,1.69l-2.13.84s-1.11.5-1.69.55c-.58.03-1.71-.44-2.38-1.43-1.17-1.69-2.44-3.36-3.27-5.19-1.46-3.09-3.4-5.8-5.56-8.36-3.1-3.72-5.4-7.93-7.95-11.99-.41-.62-.71-1.34-1.22-1.89-3.95-4.63-7.28-9.74-11.65-14.06-2.24-2.29-4.3-4.79-6.26-7.36-2.38-3.1-5.21-5.77-8-8.51-2.94-2.84-5.9-5.72-8.66-8.73-2.63-2.83-5.81-4.94-8.78-7.36-.53-.44-1.06-.88-1.55-1.3-.94-.79-1.83-1.73-2.88-2.31-2.35-1.28-4.4-3.02-6.34-4.81-2.54-2.39-5.34-4.51-8.33-6.28-4.98-3.01-10.02-5.93-15.06-8.85-1.32-.79-2.77-1.34-4.31-1.79-2.22-.65-4.27-1.81-6.43-2.66-3.26-1.32-6.61-2.53-9.91-3.82-.5-.21-1.58-.75-1.58-.75l-.38-.47.94-.93ZM441.1,56.49l16.58-16.61h46.04l16.59,16.61v91.52l-16.42,16.6h-46.21l-16.58-16.6V56.49ZM401.69,215.71l4.04-1.14,6.84-2.44,1.66.02,7.34-1.42,4.51-1.38,5.95-1.19,5.81-.67,6.59-.13,8.48-.96,8.58-.24,5.15.07,2.85.35,8.19.53,6.85,1.27,3.65.13,7.7,1.42,3.62.93,1.11.16,4.13,1.04,1.02.23,12.9,4.82,8.66,3.18,2.08.84,10.69,5.78,15.23,9.31,4.68,2.47,13.02,10.02,15.83,14.67,4.4,4.31,10.22,11.22,4.13,4.57,2.46,3.3,2.63,3.1,12.63,18.23,2.99,4.67s3.07,5.44,3.43,6.22c.19.45.91,1.48.55,2.43-.45.95-1.3.98-2.22,1.09-1.22.15-2.66.18-4.26.3h0c-4.6.28-11.63.61-17.56-.15-6.67-.84-19.66-4.15-19.66-4.15l-12.12-4.43-4.85-7.45-13.09-2.99h-.7l-.05-.34-4.71-5.38-.64-.05-5.86-6.62-6.07-.4-2.83-4.6-16.64-5.6-11.33,4.43-.14-1.07-20.02-9.75-.5.11-11.33-6.56-.14-.58-25.42-1.49-.5.37-10.11-.29-.69.32-7.34-7.11-.52.03-7.23-6.2-.08-.5-20.36-1.04-.16.09-14.71-1.13-.22-.15s-7.28-.55-7.31-.55c-.08,0-11.43-.28-11.43-.28l-.86-.63-5.9,2.44-7.48,2.61-1.32.04-14.59,5.61-6.04,2.14s-4.29,1.71-4.29,1.61c0-.11-4.26,1.29-4.26,1.29l-8.11,3.2h-1.06l-7.45,3s-.89-.04-1-.07c-.08-.03-5.23,1.85-5.23,1.85l-2.83.84c.11-.48,4.13-3.92,4.13-3.92l2.74-2.27,7.47-5.9,1.31-.84,6.59-4.47,7.97-6.25,1.1-.73,7.01-3.72,2.35-1.35,6.39-3.3,6.85-4.49,7.92-4.27,3.68-1.77,11.27-4.39,8.86-3.72,3.6-1.37,2.88-1.66,5.98-1.63,2.47-1.49ZM328.69,67.09l22.53,9.13,18.52,42.6-5.54,19.38,34.78,34.3-24.23,10.54-32.25-30.95-11.77,5.23,16.42,37.74-22.21,9.63-49.58-114.41,53.33-23.2ZM186.38,153.74l23.42-.34,65.62,63.79.47,23.33-32.2,33.13-23.48.32-65.62-63.79-.32-23.46,32.12-32.99ZM98.53,264.44l24.45,10.95-9.25,20.72,89.38,40.01-10.69,23.81-89.37-39.96-9.25,20.72-24.5-10.95,29.23-65.3ZM114.21,712.2l-12.18-23.43,28.6-34.35-6.03-11.39-36.49,19.01-11.19-21.45,110.7-57.47,26.83,51.61-7.53,23.12-41.2,21.44-19.72-4.17-31.78,37.08ZM225.93,830.84l-19.5-17.94,9.05-18.38-26.69-24.55-17.58,10.52-19.52-17.96,112.72-67.55,19.5,17.94-57.98,117.92ZM381.1,835.22l-17.39,9.25-34.83-14.53-17.97,42.99-21.65-8.97,47.87-115.18,52.66,21.9,8.75,22.59-17.44,41.95ZM436.02,616.41c-.14,0-1,.53-1,.53l-3.95,4.16-8.53,7.72s.08.5,0,.61c-.09.08-4.71,4.34-4.71,4.34l-.53.04s-3.85,3.91-5.98,6.05l-13.51,21.72-32.98,3.28-14.84,7.58-20.24-5.11-2.52,1.62-.28-.03-5.57,3.06s-3.07-2.06-3.16-2.09h-1.19l-.75-.88-1,.05-13.34-5.18s-.75.14-.8.14c-.09,0-.19-.41-.19-.41,0,0-7.97-2.47-8.03-2.49-.02-.06-6.5-2.22-6.56-2.24-.06-.08-1.3-.14-1.49-.22-.25-.06-.31-.89-.31-.89l-10.91-11.85-6.7-8.54-7.76-11.9-10.52-14.58.72-2.53,7.78-6.67,23.62-2.16-.58-1.45,14.28-34.63-.19-1.08,23.15-17.97,1.41-.29,14.81-11.47-.11-.51,2.53.28,4.21-1.79,4.04.19,7.11-1.47,11.9-12.87,12.04.71,2.55-.9,12.04,1.43s26.81-14.87,26.89-14.93c.08-.06.41-.79.41-.79l1.27.06,16.31-2.81.45-.55,5.46-.07,19.88-22.69.61-.13.19-.98,15.58-17.02-.06-.57,3.1-3.52,18.03,1.23.97.74,3.71-3.11,3.71-.41,9.44-5.56,1.83.05,17.69-13.64,19.35-2.59.44-.97,7.54-7.02,1.33-.11,9.55-7.05v-.57l3.52,1.15,32.39.84,22.37-7.78c7.81-.92,15.18-1.35,22.98-2.37,1.49-.19,3.57-.4,5.04-.7.33-.07.69-.11,1.02-.18,4.01-.47,4.84.06,5.7,3.97.84,3.85,1.47,7.4,2.16,11.28.67,3.7,1.39,7.4,1.94,11.12.75,4.79,1.44,9.6,1.94,14.45.38,3.8.44,7.64.69,11.46.08,1.03.22,2.05.28,3.06.16,3.09.28,6.15.47,9.22.06,1.08.28,1.79.28,2.89h0c0,.97-.02,1.32-.11,2-.08.64-.06,1.38-.83,2.07-.77.71-1.77.71-2.44.81-.67.1-2.41.32-2.41.32l-3.57.21-5.9,1.01-5.09.92c-1.25.37-2.49.7-3.77,1.13-2.55.84-5.07,1.73-7.56,2.62-1.79.65-3.68,1.13-5.59,1.87-4.56,1.73-15.45,6.84-15.45,6.84l-2.49-.29-4.07-.57-.37-.28s-7.33-1.02-7.45-1.01c-.05.04-2.52,2.48-2.52,2.48l-.55.11-4.13,4.9-10.8,2.27-.39.52-7.86,2.1-3.82,7.32.06,2.07-16,7.18-.58.71-1.1-.96-11.49-.47-8.06,5.56-8.83,1.08-7.67,3.3-2.49,8.46-.94.7-.28,1.33-1.44.14-24.22,11.13-.61.86-7.26,3.19h-.47c-.11-.02-4.04,2.27-4.04,2.27l-1.32-.16-.92,1.09-6.72,3.81-4.07,7.93-.94.39-9.89,16.09-.06,1.22-2.18.5-.3.29-7.37,2.2-3.82,13.94.94,3.36-.97.21-3.65,3.78s-4.46,4.73-4.57,4.76ZM496.25,906.64l-26.11.26-1.11-97.88-22.7.22-.28-26.8,71.55-.8.28,26.83-22.7.28,1.08,97.89ZM546.3,727.36l-.86.55-11.99,4.73-9.44,2.75-8.69,2.37-11.52,2.02-19.35,2.32-5.32.15-5.34-.15-3.3-.14-7.11-.11-6.09-.3-9-.72s-5.38-.58-5.38-.82l1.63-2.58,13.82-8.17,1.05.22,9.39-5.56,1.86-.57-1.14-1.95s.69-5.16.69-5.26l-.71-1.11s13.01-7.78,13.03-7.72c0,.06,12.35-17.36,12.35-17.36l.08-1.1,3.55-5.55,1.1-.34,14.43-22.96-.5-.93.56-.71,1.52-10.27-.19-.61,3.71-11.88.5-.44,2.88-13.1h2.41l15.06-7.23-1.36-4.22,10.17-37.59,2.52-2.46,2.77-10.96,3.93-3.3.58.04,26.03-16.73c1.3-2.18,2.49-4.09,2.49-4.09l.14-1.08.8-.04,5.76-10.15.02-.79,1.31-1.24-.17-1.39,12.41-4.11.16-.29,3.79-.22.83.33.23-1.39,6.06-6.45c4.77-2.35,15.14-7.45,16.26-7.97,3.07-1.48,6.56-2.56,9.66-3.95,2.87-1.3,6.03-2.1,9.14-2.99,2.77-.77,5.56-1.34,8.39-2.02.5-.14,1.02-.22,1.55-.3l4.68-.72s2.8-.36,3.38-.36c.58-.03,1.47.08,2.16.84.69.76.55,2.2.53,3.05h0c-.02.84-.06,2.26-.06,2.26,0,0-.06.94-.06,1.44-.19,4.44-.41,8.89-.77,13.32-.28,3.22-.78,6.37-1.25,9.57-.66,4.67-1.32,9.33-2.05,14.01-.77,4.93-1.63,9.85-2.46,14.77-.14.8-.25,1.64-.53,2.4-2.22,5.86-3.13,12.03-4.77,18.07-2.1,8.07-4.48,16.06-7.47,23.88-2.8,7.38-5.95,14.58-8.94,21.84-1.84,4.4-4.27,8.61-6.65,12.76-2.79,4.85-5.42,9.83-8.08,14.79-2.47,4.61-5.65,8.89-8.53,13.3-2.18,3.31-4.31,6.65-6.61,9.9-1.22,1.79-2.66,3.47-4.18,5-1.94,1.92-4.1,3.64-5.62,5.97-.7,1.09-1.66,1.99-2.53,2.96-1.3,1.33-2.71,2.53-3.46,4.3-.16.47-.67.86-1.06,1.24-2.18,2.19-4.34,4.38-6.53,6.54-2.3,2.27-4.6,4.51-6.95,6.72-6.81,6.49-14.37,12.08-21.88,17.75-4.37,3.28-14.03,8.43-14.03,8.43l-3.43,1.88ZM653.26,870.55l-43.19,16.39-21.41-9.63-32.47-85.56,9.63-21.41,43.03-16.33,21.4,9.63,32.48,85.58-9.47,21.32ZM777.47,788.56l-39.87-20.26-9.74,8.4,26.66,31.34-18.44,15.67-80.63-95.11,44.27-37.65,24.26,2.2,30.07,35.4.33,20.13,43.22,22.75-20.12,17.12ZM854.96,690.26s-22.59,6.88-22.73,6.82l-18.75-9.88,12.21-23.2,9.47,4.98,10.17-19.35-2.08-6.72-9.86-5.18-6.81,2.05-14.36,27.36-23.21,7.03-.08.15-37.44-19.68-7.31-22.84,21.49-40.89,22.79-6.56,17.64,9.15-12.32,23.41-8.64-4.53-2.44,4.59-7.78,14.81,2.13,6.63,12.24,6.47-1.55-.86,6.7-2.01,14.65-27.85,22.98-6.89,37.44,19.66,6.95,22.43-21.49,40.91ZM870.38,324.42l-82.53,39.46-22.05-7.63-19.96-41.68,7.84-22.13,82.54-39.49,22.12,7.8,19.85,41.5-7.81,22.17Z"/>
    <polygon class="cls-2" points="833.6 283.26 779.1 309.32 776.78 315.96 784.03 331.13 790.67 333.46 845.16 307.41 847.48 300.78 840.24 285.6 833.6 283.26"/>
    <polygon class="cls-2" points="489.11 137.32 494.09 132.34 494.09 71.95 489.11 66.97 472.3 66.97 467.31 71.95 467.31 132.34 472.3 137.32 489.11 137.32"/>
    <path class="cls-2" d="M707.61,719.78l-16.34,13.87,17.42,20.5,16.34-13.89c.14-.14.58-6.98.58-6.98l-10.99-12.94-7.01-.57Z"/>
  </g>
</svg>