<?xml version="1.0" encoding="UTF-8"?>
<svg id="Layer_1" data-name="Layer 1" xmlns="http://www.w3.org/2000/svg" viewBox="0 0 519.45 305.35">
  <defs>
    <style>
      .cls-1 {
        fill: #5d2e8f;
      }

      .cls-1, .cls-2 {
        stroke-width: 0px;
      }

      .cls-2 {
        fill: #fff;
      }
    </style>
  </defs>
  <g id="Layer_2" data-name="Layer 2">
    <g id="Layer_1-2" data-name="Layer 1-2">
      <path class="cls-1" d="M359.91,151.13h121.09c23.75,0,38.45-18.89,38.45-36.88V5.66h-121.2c-23.75,0-38.45,18.89-38.45,36.88v108.59h.11Z"/>
      <path class="cls-2" d="M473.43,108.12h-11.91v13.77h-16.52v-13.77h-28.53c-5.89-.09-10.66-4.6-10.66-10.14,0-1.7.45-3.38,1.32-4.84h0l35.74-58.24h19.44l-36.16,58.55h18.85v-9.63h16.5v9.63h11.91l.02,14.67Z"/>
      <path class="cls-2" d="M0,0v305.35h268.94c24,0,45.86-9.1,61.6-25.62,14.37-15.08,22.61-35.2,22.61-55.2V0H0Z"/>
      <path class="cls-1" d="M0,0v305.35h268.94c24,0,45.86-9.1,61.6-25.62,14.37-15.08,22.61-35.2,22.61-55.2V0H0ZM349.13,4v147.15H4V4h345.13Z"/>
      <path class="cls-1" d="M69.37,50.34c-12.09-.04-23.48,5.65-30.71,15.33V28.38c-.1-1.99-1.8-3.52-3.79-3.42-1.84.1-3.32,1.57-3.42,3.42v61.09c.32,20.65,17.28,37.15,37.93,36.91,22.7,0,37.93-19.79,37.93-38.28-.01-23.32-19.7-37.76-37.94-37.76ZM69.27,118.79c-16.94.09-30.76-13.57-30.85-30.51-.09-16.94,13.57-30.76,30.51-30.85,16.94-.09,30.76,13.57,30.85,30.51,0,.06,0,.11,0,.17.03,16.89-13.62,30.61-30.51,30.68ZM187.77,88.36c.07,1.94-1.45,3.58-3.39,3.65-.13,0-.25,0-.38,0h-39.55c-2.07-.11-3.66-1.87-3.55-3.94.1-1.92,1.63-3.45,3.55-3.55h35.65c-2.12-16.74-17.41-28.6-34.16-26.48-16.74,2.12-28.6,17.41-26.48,34.16,2.12,16.74,17.41,28.6,34.16,26.48,9.23-1.17,17.42-6.48,22.26-14.42.55-.84,1.41-1.42,2.39-1.61.96-.2,1.97,0,2.78.56,1.71,1.12,2.19,3.41,1.08,5.13-11.03,17.86-34.44,23.39-52.3,12.36s-23.39-34.44-12.36-52.3c11.03-17.86,34.44-23.39,52.3-12.36,11.2,6.92,18.02,19.14,18.03,32.3l-.03.03ZM209,120.23h0c-.21,2.89-3.25,6.1-7.27,6.12h0c-4.07,0-7-3.17-7.28-6.12v-63.54c.54-3.59,3.65-6.23,7.28-6.18h0c4,0,7.06,3.24,7.27,6.12v63.6ZM305.57,124.34c-3.15,1.3-6.51,1.98-9.92,2-7.48-.07-14.49-3.68-18.89-9.74-2.72-4.12-28.24-44.44-29.33-46.23-.07-.13-2.84-5.86-8.31-5.55-9.46.85-9,8.76-9,9.1v45.78c0,3.6-3.27,6.63-7.15,6.65h0c-4.22,0-7.08-3-7.31-5.84v-47.81c0-.16.34-14.84,14.35-20.6,14.28-5.31,25.18,2.68,29,9.34l29.22,46c.18.29,4.27,6.89,12.24,3.1,2.72-1.39,4.5-4.13,4.67-7.18v-46.83c.56-3.55,3.62-6.17,7.21-6.17h0c4,0,7,3.15,7.21,6.07v46.92c.04.1.74,14.99-13.98,20.99h0Z"/>
      <path class="cls-2" d="M51.38,219.8c-5.07,0-8.73-1.09-10.87-3.25-1.08-1.02-1.73-2.42-1.82-3.9-.08-2.78.89-5.5,2.72-7.6,2.18-2.35,5.55-3.54,10-3.54s7.49,1.18,9.63,3.5c3.26,3.54,2.88,8.61,2.87,8.72,0,2,1.62,3.62,3.62,3.62,2,0,3.62-1.62,3.62-3.62,0-19.22-19-19.44-19.77-19.44h-.1c-19.27,0-19.83,16.36-19.83,18.23,0,5.44,4.2,14.64,20,14.64,5.32,0,9.13,1.15,11.34,3.42,1.32,1.33,2.04,3.13,2,5,.09,2.62-.86,5.17-2.64,7.1-2.26,2.32-5.8,3.5-10.55,3.5h-.08c-4.27,0-7.56-1.21-9.77-3.56-1.95-2.16-2.98-4.99-2.9-7.9-.11-2.02-1.83-3.58-3.86-3.47-1.88.1-3.38,1.6-3.47,3.47-.16,4.82,1.65,9.49,5,12.95,3.96,3.89,9.34,6.01,14.89,5.87,15.33,0,20.77-9.66,20.77-17.94-.06-9.6-8.18-15.8-20.8-15.8ZM298.85,219.8c-5.07,0-8.73-1.09-10.87-3.25-1.08-1.02-1.73-2.42-1.82-3.9-.08-2.79.89-5.5,2.72-7.6,2.18-2.35,5.55-3.54,10-3.54s7.48,1.18,9.62,3.5c3.26,3.54,2.88,8.62,2.87,8.72,0,2,1.62,3.62,3.61,3.62s3.62-1.62,3.62-3.62c0-19.22-19-19.44-19.77-19.44h-.09c-19.28,0-19.83,16.37-19.83,18.23,0,5.44,4.2,14.64,20,14.64,5.31,0,9.12,1.15,11.33,3.43,1.32,1.33,2.04,3.13,2,5,.08,2.62-.87,5.17-2.65,7.1-2.25,2.32-5.8,3.51-10.55,3.51h-.08c-4.27,0-7.56-1.21-9.77-3.56-1.95-2.16-2.98-4.99-2.9-7.9-.11-2.02-1.83-3.58-3.86-3.47-1.88.1-3.38,1.6-3.47,3.47-.16,4.82,1.65,9.49,5,12.95,3.96,3.89,9.34,6.01,14.89,5.87,15.33,0,20.77-9.66,20.77-17.94-.02-9.62-8.17-15.82-20.77-15.82ZM99.56,194.3c-11.69,0-19.84,8.2-19.84,19.92v34.51c0,2.04,1.66,3.7,3.7,3.7s3.7-1.66,3.7-3.7h0v-14.62h12.44c10.99-.25,19.71-9.36,19.46-20.35-.24-10.65-8.81-19.22-19.46-19.46ZM99.49,226.8h-12.34v-12.61c0-7.6,5-12.71,12.37-12.71,6.99-.2,12.81,5.31,13.01,12.3s-5.31,12.81-12.3,13.01c-.24,0-.47,0-.71,0h-.03ZM154.79,194.3c-16.36,0-29.63,13.26-29.64,29.62s13.26,29.63,29.62,29.64,29.63-13.26,29.64-29.62c-.02-16.36-13.26-29.61-29.62-29.64ZM154.79,246.37c-12.39.01-22.45-10.03-22.46-22.42s10.03-22.45,22.42-22.46c12.39-.01,22.45,10.03,22.46,22.42v.03c-.02,12.37-10.05,22.4-22.42,22.43ZM217.42,232.91c10.28-4.05,15.33-15.66,11.28-25.94-3.01-7.65-10.4-12.68-18.62-12.67-11.75,0-20,8.24-20,20v34.4c0,2.05,1.67,3.72,3.72,3.72s3.72-1.67,3.72-3.72v-14.37h11.82l9.85,16.08c.96,1.84,3.23,2.56,5.07,1.6s2.56-3.23,1.6-5.07c-.05-.1-.11-.19-.16-.28l-8.28-13.75ZM197.59,227v-12.68c0-7.65,5-12.79,12.45-12.79,7.03-.19,12.89,5.37,13.07,12.4.19,7.03-5.37,12.89-12.4,13.07-.24,0-.48,0-.71,0h-12.41ZM274.79,199.16c0,2.05-1.65,3.71-3.7,3.72h-12.87v45.84c0,2.06-1.67,3.73-3.73,3.72-2.06,0-3.72-1.67-3.72-3.72v-45.84h-12.87c-2.05,0-3.72-1.67-3.72-3.72s1.67-3.72,3.72-3.72h33.18c2.05,0,3.71,1.66,3.71,3.71h0s0,.01,0,.01Z"/>
    </g>
  </g>
</svg>