<?xml version="1.0" encoding="UTF-8"?>
<svg xmlns="http://www.w3.org/2000/svg" viewBox="0 0 1249 547.87">
  <defs>
    <style>
      .cls-1 {
        fill: #360c3a;
      }

      .cls-1, .cls-2 {
        stroke-width: 0px;
      }

      .cls-2 {
        fill: #fff;
      }
    </style>
  </defs>
  <g id="svg2">
    <path id="path44" class="cls-2" d="M963.39,365.1l3.41-14.47h27.66v108.96c0,21.28-5.95,36.18-20,47.24-10.63,8.09-25.12,14.04-42.56,14.04-23.84,0-40.86-8.09-54.48-21.28l17.45-24.26c8.51,8.09,20,15.33,34.9,15.33,23.41,0,33.62-11.49,33.62-28.52v-8.09c-9.35,9.79-20.42,13.62-32.76,13.62-32.35,0-57.89-26.39-57.89-60.01s26.39-58.73,58.73-58.73c13.19,0,25.11,6.38,31.91,16.18M935.32,377.45c-16.59,0-29.8,12.76-29.8,30.21s13.2,29.79,29.8,29.79,29.79-13.19,29.79-29.79c0-17.45-13.19-30.21-29.79-30.21M755.28,188.05c-13.2,0-24.27,7.66-26.82,20.01h52.77c-2.55-11.92-13.18-20.01-25.95-20.01M756.99,280.41c-35.32,0-61.29-24.26-61.29-59.58,0-31.93,23.41-60.44,60.44-60.44,27.66,0,56.18,20.85,56.18,59.58,0,2.98,0,6.81-.85,11.06h-83.42c2.97,12.77,14.47,21.29,28.51,21.29,12.77,0,22.56-4.69,30.65-13.2l19.15,19.58c-12.34,14.05-30.22,21.71-49.37,21.71M1110.66,188.05c-13.19,0-24.25,7.66-26.82,20.01h52.78c-2.55-11.92-13.19-20.01-25.96-20.01M1112.37,280.41c-35.32,0-61.29-24.26-61.29-59.58,0-31.93,23.41-60.44,60.44-60.44,27.66,0,56.18,20.85,56.18,59.58,0,2.98,0,6.81-.85,11.06h-83.43c2.99,12.77,14.48,21.29,28.52,21.29,12.76,0,22.55-4.69,30.65-13.2l19.15,19.58c-12.34,14.05-30.22,21.71-49.37,21.71M1191.96,375.32c-13.19,0-24.26,7.66-26.81,20.01h52.78c-2.56-11.92-13.2-20.01-25.97-20.01M1193.66,467.67c-35.33,0-61.29-24.26-61.29-59.58,0-31.93,23.41-60.44,60.44-60.44,27.66,0,56.19,20.85,56.19,59.58,0,2.98,0,6.81-.87,11.06h-83.41c2.98,12.77,14.47,21.28,28.51,21.28,12.77,0,22.56-4.68,30.65-13.19l19.15,19.58c-12.34,14.05-30.21,21.71-49.37,21.71M670.16,375.32c-13.2,0-24.26,7.66-26.82,20.01h52.78c-2.55-11.92-13.19-20.01-25.96-20.01M671.86,467.67c-35.32,0-61.29-24.26-61.29-59.58,0-31.93,23.4-60.44,60.43-60.44,27.67,0,56.19,20.85,56.19,59.58,0,2.98,0,6.81-.85,11.06h-83.43c2.98,12.77,14.48,21.28,28.52,21.28,12.76,0,22.55-4.68,30.65-13.19l19.15,19.58c-12.34,14.05-30.21,21.71-49.37,21.71M496.94,464.7v-168.97h33.62v137.05h73.21v31.92h-106.82ZM625.04,277.43v-114.07h27.24l3.41,16.6c5.1-10.65,15.31-17.87,28.94-17.87,2.98,0,5.95.42,8.94,1.27v30.22c-3.84-.85-7.23-1.28-11.06-1.28-15.32,0-25.96,9.37-25.96,27.66v57.46h-31.5ZM1180.04,277.43v-114.07h27.23l3.41,16.6c5.11-10.65,15.32-17.87,28.94-17.87,2.98,0,5.95.42,8.94,1.27v30.22c-3.84-.85-7.23-1.28-11.07-1.28-15.32,0-25.95,9.37-25.95,27.66v57.46h-31.5ZM960,210.18c0-12.34-6.81-20.01-17.45-20.01-12.34,0-18.72,7.66-18.72,20.44v66.82h-31.5v-67.25c0-12.34-6.81-20.01-17.45-20.01-12.34,0-18.73,7.66-18.73,20.44v66.82h-31.5v-114.06h27.66l3.41,14.9s6.81-17.87,28.09-17.87c13.2,0,24.26,5.53,31.93,17.03l.85,1.27.85-1.27c11.07-15.75,24.69-17.03,33.2-17.03,24.26,0,40.86,18.3,40.86,44.26v72.78h-31.5v-67.25h-.02ZM1023.41,148.05c-11.06,0-19.58-8.52-19.58-19.16s8.51-19.58,19.58-19.58,19.58,8.51,19.58,19.58-8.51,19.16-19.58,19.16M1007.25,163.36h31.49v114.06h-31.49v-114.06ZM800.82,377.45c-17.03,0-29.79,12.76-29.79,30.21s12.76,29.79,29.79,29.79,29.37-13.19,29.37-29.79c0-17.45-12.77-30.21-29.37-30.21M794.43,467.67c-30.22,0-56.6-27.66-56.6-60.01s26.38-58.73,56.6-58.73c17.03,0,28.51,5.95,35.33,16.59l3.41-14.9h27.66v114.06h-27.66l-3.41-14.48c-6.81,10.23-19.58,17.46-35.33,17.46M1065.55,467.67c-25.11,0-55.75-13.62-55.75-56.18v-60.87h31.48v58.73c0,19.58,8.95,28.09,24.26,28.09,14.04,0,24.26-9.79,24.26-28.09v-58.73h31.5v60.87c0,42.56-31.07,56.18-55.76,56.18M530.56,188.48h19.58c17.03,0,29.37-9.36,29.37-26.39s-12.34-25.97-29.37-25.97h-19.58v52.36ZM496.94,277.43V104.2h54.9c35.75,0,62.57,21.28,62.57,57.89s-26.39,58.73-62.57,58.73h-21.28v56.61h-33.62Z"/>
  </g>
  <g id="Layer_2" data-name="Layer 2">
    <path class="cls-2" d="M376.52,255.59c-11.43,9.36-21.11,14.58-21.11,14.58l.13,29.68c8.17,8.89,16.22,16.26,22.26,29.68,11.45-20.1,9.25-49.65-1.28-73.94h0Z"/>
    <path class="cls-2" d="M332.31,329.62s-30.53,25.6-49.16,26.2c0,0,10.26,18.62,15.45,28.35,10.24-2.19,28.27-10.07,35.53-18.32,0,0,4.8,15.1,3.9,32.92,10.19-5.76,24.24-21.39,29.19-46.02h0s-2.33-12.24-12.26-23.67l-22.65.54Z"/>
    <path class="cls-2" d="M338.58,158.06c-11.55-9.02-22.94-14.71-32.16-18.35,0,0-1.3,14.93-6.76,22.1-31.61-22.25-47.13-27.85-47.13-27.85-34.69,4.85-57.02,17.91-69.15,28.18l10.57,8.78c-20.91,6.27-34.5,23.79-34.5,23.79.15.32,18.69,2.9,18.69,2.9,0,0-1.89,21.24,25.36,34.55,23.36,11.4,56.93-2.75,88.54,9.62-20.78-23.41-35.16-33.87-35.16-33.87,0,0-8.26-1.68-14.07-1.63-7.26.04-18.1,1.44-29.96-3.07-5.68-2.17-12.31-5.99-17.5-9.17,0,0,14.6-14.62,35.93-17.85,0,0,19.24,5.28,34.47,16.28,10.13-9.62,20.69-9.32,20.69-9.32,0,0-10.48,9.54-7.31,21.09,15.21,13.23,31.72,32.17,31.72,32.17,16.82-8.98,53.38-6.92,60.89,1.59-9.51-12.05-23.22-22.1-33.84-30.69-1.3-4.51-12.88-20.23-14.84-21.69,0,0,11.01,3.31,20.85,11.92,2.82-3.93,8.1-7.92,15.3-9.69,7.4,6.06,8.72,15.35,8.52,16.9-3.32,3.89-6.63,5.48-6.63,5.48l17.83,18.83,1.78-13.51c-2.84-5.53-5.68-11.5-8.41-17.9-6.88-12.32-17.51-26.93-33.75-39.6Z"/>
    <path class="cls-2" d="M338.04,299.15l-.04-29.57s-13.54-4.23-27.98-15.16c-29.01,4.27-64.15,32.75-64.15,32.75,0,0,11.87,21.97,24.85,45.68,22.83,3.11,56.47-25.02,67.32-33.7h0Z"/>
    <path class="cls-2" d="M292.02,126.52c-1.1-.24-2.2-.46-3.3-.67,1.26,1.4,2.4,2.74,3.39,3.98,0,0,.06-1.21-.09-3.31Z"/>
    <path class="cls-2" d="M301.19,518.59c-29.74,18.23-65.72,28.53-100.41,28.53-27.88,0-53.89-6.55-77.31-19.47l-5.13-2.83,1.16-5.75c7.39-36.74,12.43-68.58,4.45-105.08-31.05,42.85-56.75,60.33-57.94,61.12l-6.93,4.64-4.35-7.12c-21.19-34.71-22.77-98.29-18.09-131.28L0,352.42v-10.77c0-26.4,16.62-74.1,40.06-106.31l-10.18-1.59h-12.34l5.79-11.59c17.07-34.03,42.77-63.8,74.32-86.1l.3-.22.32-.19,10.74,11.26c-1.26,1.95-2.34,4.59-3.1,7.68,1.72-4.33,4.12-8.21,7.2-11.44,5.54-5.85,12.79-9.3,21.12-10.05-.9-.16-1.83-.27-2.79-.32l.08-1.5-3.25-13.64c33.2-16.67,70.66-25.48,108.33-25.48,7.29,0,14.56.31,21.63.93l1.15.1,1.07.42c5.17,2.02,10.83,5.76,16.18,9.98l-4.63-9.82,16.17,3.84c30.74,7.31,55.02,19.33,72.17,35.74l1.88,1.8.46,2.56c1.3,7.25,2.93,14.52,4.83,21.62.15.56.31,1.12.46,1.67l.17.62c3.1,11.16,6.98,22.22,11.52,32.87l-4.01,1.97,11.29,14.06c10.39,12.93,19.4,27.1,26.77,42.12,11.93,24.28,19.22,50.02,21.68,76.5,2.98,32.05-1.34,65.19-12.5,95.85l-4.48,12.32-16.14-17.44c-9.43,50.59-38.28,92.53-84.19,122.01l-9.28,5.96-7.65-29.28ZM341.76,363.42c.14.45,2.44,7.78,3.65,18.28,5.4-6.6,10.77-16.14,13.61-28.82-.77-2.73-2.95-9.15-7.81-15.71l-15.96.38c-6.37,5.11-23.8,18.34-39.91,23.83,2.27,4.14,4.94,9.03,7.29,13.37,9.37-3.12,21.01-9.09,25.51-14.2l9.34-10.61,4.28,13.47ZM256.16,289.38c4.06,7.49,11.43,21.07,19.41,35.67,17.9-.88,43.39-20.86,54.46-29.74l-.03-20.22c-5.15-2.15-13.27-6.06-21.96-12.21-19.53,4.07-41.92,19.19-51.89,26.5ZM364.94,298.2c3.75,3.99,7.57,8.05,11.18,12.86,2.58-12.62,1.46-27.71-3.29-42.57-3.76,2.69-7.01,4.79-9.4,6.25l.1,21.95c.47.5.94,1,1.41,1.5ZM186.12,198.27c-.05,1.31-.17,16.41,20.9,26.71,5.75,2.81,12.82,4,23.63,4,4.04,0,8.2-.16,12.6-.32,4.63-.17,9.43-.35,14.32-.35,3.32,0,6.98.07,10.87.35-7.29-7.04-12.56-11.37-14.91-13.23-2.75-.48-7.27-1.15-10.49-1.15h-.16c-1.19,0-2.46.05-3.82.1-1.84.06-3.93.14-6.16.14-5.5,0-13.85-.4-22.88-3.83-5.04-1.93-11.02-5.05-18.83-9.82l-5.01-3.06-.06.46ZM286.56,200.12c10.43,9.34,20.93,20.59,26.43,26.66,10.01-3.59,21.44-4.19,28.02-4.19.85,0,1.96.01,3.26.05-2.05-1.67-4.09-3.29-6.07-4.86-1.83-1.45-3.61-2.87-5.31-4.24l-1.96-1.58-.67-2.34c-1.19-3.17-10.19-15.75-12.42-17.95.18.18.34.3.46.39l7.08-14.08c.42.13,8.76,2.68,17.83,8.92,2.54-2,5.44-3.7,8.59-4.99-5.44-6.48-11.5-12.33-18.15-17.52-6.52-5.09-13.58-9.51-21.07-13.19-1.24,5.18-3.28,11.17-6.56,15.48l-4.67,6.13-6.3-4.44c-24.27-17.08-38.8-24.08-43.55-26.16-26.43,4.03-44.36,12.93-55.24,20.25l14.27,11.86-14.28,4.28c-7.88,2.36-14.66,6.63-19.81,10.71.95.13,10.58,1.48,10.58,1.48l-.04.35,2.71-2.72c.67-.67,16.73-16.53,40.4-20.11l1.68-.25,1.64.45c.75.21,16.87,4.7,31.88,14.05,9.85-6.97,19.07-7.38,21.06-7.38h.33s19.57.73,19.57.73l-14.42,13.18s-5.48,5.21-5.28,11.04ZM373.22,211.38l.11-.85c-.15.17-.3.33-.45.49l.34.36ZM374.49,197.08c.16.5.3,1,.43,1.48l.24-1.81-.67.33Z"/>
    <path class="cls-1" d="M427.46,329.91c-2.75-29.53-11.38-54.34-20.9-73.72-9.33-18.99-19.51-32.77-25.83-40.64l-1.78,13.51-17.83-18.83s3.3-1.59,6.63-5.48c.2-1.55-1.12-10.85-8.52-16.9-7.2,1.76-12.48,5.76-15.3,9.69-9.84-8.61-20.85-11.92-20.85-11.92,1.96,1.46,13.54,17.18,14.84,21.69,10.61,8.59,24.33,18.64,33.84,30.69-7.51-8.5-44.07-10.57-60.89-1.59,0,0-16.51-18.94-31.72-32.17-3.17-11.55,7.31-21.09,7.31-21.09,0,0-10.57-.3-20.69,9.32-15.23-11-34.47-16.28-34.47-16.28-21.33,3.22-35.93,17.85-35.93,17.85,5.2,3.18,11.82,7,17.5,9.17,11.87,4.51,22.7,3.11,29.96,3.07,5.81-.04,14.07,1.63,14.07,1.63,0,0,14.38,10.46,35.16,33.87-31.61-12.37-65.18,1.78-88.54-9.62-27.25-13.31-25.36-34.55-25.36-34.55,0,0-18.54-2.58-18.69-2.9,0,0,13.58-17.52,34.5-23.79l-10.57-8.78c12.13-10.27,34.45-23.32,69.15-28.18,0,0,15.52,5.61,47.13,27.85,5.46-7.17,6.76-22.1,6.76-22.1,9.23,3.65,20.61,9.34,32.16,18.35,16.24,12.67,26.87,27.28,33.75,39.6-4.35-10.2-8.44-21.51-11.87-33.87-.22-.79-.44-1.57-.65-2.36-2.08-7.74-3.7-15.19-4.98-22.28-8.17-7.82-27.65-24.03-68.49-33.74,4.22,8.95,5.37,16.86,5.67,21.11.15,2.1.09,3.31.09,3.31-.99-1.24-2.13-2.58-3.39-3.98-8.28-9.2-21.65-21.05-31.17-24.78-6.87-.6-13.89-.9-20.94-.9-37.71,0-73.35,8.87-104.74,24.63h.02c16.62.92,27.72,14.54,31.5,25.36-12.72-9.71-32.65-14-44.49-1.48-11.84,12.41-10.48,36.38.86,55.77-26.7-13.19-26.57-47.85-17.46-61.89l-.04.02c-30.36,21.45-55.17,50.02-71.79,83.15h.02l24.46,3.82c-27.78,30.97-46.96,86.1-46.96,112.08l39.16-11.83c-7.02,22.76-9.14,100.1,14.4,138.65,0,0,30.82-20.62,65.65-73.23,14.88,47.16,7.95,86.55.13,125.42,62.89,34.7,136.11,15.2,178.78-14.86l7.68,29.4c50.26-32.28,77.62-78.56,82.95-133.06,6.22,6.72,12.45,13.44,18.67,20.17,6.71-18.45,15.86-51.35,12.05-92.37ZM270.72,332.84c-12.99-23.71-24.85-45.68-24.85-45.68,0,0,35.13-28.48,64.15-32.75,14.44,10.93,27.98,15.16,27.98,15.16l.04,29.57h0c-10.85,8.68-44.49,36.81-67.32,33.7ZM367.23,352.75c-4.95,24.63-19,40.27-29.19,46.02.9-17.82-3.9-32.92-3.9-32.92-7.26,8.25-25.29,16.13-35.53,18.32-5.2-9.73-15.45-28.35-15.45-28.35,18.62-.6,49.16-26.2,49.16-26.2l22.65-.54c9.93,11.42,12.26,23.67,12.26,23.67h0ZM377.79,329.53c-6.03-13.42-14.09-20.79-22.26-29.68l-.13-29.68s9.69-5.22,21.11-14.58h0c10.52,24.29,12.72,53.84,1.28,73.94Z"/>
    <path class="cls-2" d="M113.42,118.75c-5.6-16.48-14.95-39.25-27.72-54.11l8.17-10.95c11.86,5.3,21.6,11.21,28.88,16.19-1.84-11.14-4.05-25.04-5.6-35.32l-2.38-15.79,17.81,12.05c12.63,8.55,32.04,21.69,44.18,29.86,5.82-16.9,15.75-45.06,16.26-46.49l4.8-13.6,7.71,12.18c.22.34,17.53,27.68,26.62,41.84,5.6-5.98,13.8-14.83,21.32-22.95,7.83-8.45,15.22-16.42,18.63-20.03l10.97-11.64,1.1,15.96c.34,4.92.71,10.37,1.08,15.84.46,6.73.94,13.84,1.37,20.04,6.29-6.82,14.54-14.75,24.66-22.35l10.42,8.83c-8.83,16.97-12.67,40.58-14.35,57.4l-.82,8.23-7.98-2.17c-20.1-5.47-40.94-8.24-61.94-8.24-39.76,0-78.9,10.06-113.19,29.08l-7.33,4.07-2.7-7.94Z"/>
    <path class="cls-1" d="M120.05,116.5c34.41-19.09,74.21-29.96,116.59-29.96,22.06,0,43.48,2.96,63.78,8.48,1.89-19.05,6.16-42.76,15.1-59.94-20.63,15.51-32.93,32.34-34.54,34.47-.48-4.32-2.38-33.03-3.76-53.11-8.32,8.83-40.46,43.72-46.08,49.46-4.6-6.89-31.5-49.37-31.5-49.37,0,0-14.88,42.16-19.17,55.06-10.54-7.04-42.58-28.73-56.38-38.08,2.69,17.85,7.35,46.58,8.61,52.55-2.77-2.04-17.99-15.4-41.67-25.99,12.99,15.12,22.78,38.01,29.04,56.42Z"/>
  </g>
</svg>